<svg xmlns="http://www.w3.org/2000/svg" xmlns:xlink="http://www.w3.org/1999/xlink" xmlns:sketch="http://www.bohemiancoding.com/sketch/ns" viewBox="0 0 30 37.5" version="1.1" x="0px" y="0px"><title>education_011-mathematic-math-calculator-learn-study-school</title><desc>Created with Sketch.</desc><g stroke="none" stroke-width="1" fill="none" fill-rule="evenodd" sketch:type="MSPage"><g sketch:type="MSArtboardGroup" transform="translate(-45.000000, -90.000000)" fill="#000000"><g sketch:type="MSLayerGroup" transform="translate(48.000000, 92.000000)"><path d="M0,0.5 L0,24.5 C0,24.7761424 0.223857625,25 0.5,25 L24.5,25 C24.7761424,25 25,24.7761424 25,24.5 L25,0.5 C25,0.223857625 24.7761424,0 24.5,0 L0.5,0 C0.223857625,0 0,0.223857625 0,0.5 Z M1,1 L12,1 L12,12 L1,12 L1,1 Z M1,13 L12,13 L12,24 L1,24 L1,13 Z M13,13 L24,13 L24,24 L13,24 L13,13 Z M13,1 L24,1 L24,12 L13,12 L13,1 Z" sketch:type="MSShapeGroup"/><path d="M7,9.5 C7,9.77614237 6.77614237,10 6.5,10 C6.22385763,10 6,9.77614237 6,9.5 L6,7 L3.5,7 C3.22385763,7 3,6.77614237 3,6.5 C3,6.22385763 3.22385763,6 3.5,6 L6,6 L6,3.5 C6,3.22385763 6.22385763,3 6.5,3 C6.77614237,3 7,3.22385763 7,3.5 L7,6 L9.5,6 C9.77614237,6 10,6.22385763 10,6.5 C10,6.77614237 9.77614237,7 9.5,7 L7,7 L7,9.5 Z" sketch:type="MSShapeGroup"/><path d="M15.5,7 C15.2238576,7 15,6.77614237 15,6.5 C15,6.22385763 15.2238576,6 15.5,6 L21.5,6 C21.7761424,6 22,6.22385763 22,6.5 C22,6.77614237 21.7761424,7 21.5,7 L15.5,7 Z" sketch:type="MSShapeGroup"/><path d="M15.5,19 C15.2238576,19 15,18.7761424 15,18.5 C15,18.2238576 15.2238576,18 15.5,18 L21.5,18 C21.7761424,18 22,18.2238576 22,18.5 C22,18.7761424 21.7761424,19 21.5,19 L15.5,19 Z" sketch:type="MSShapeGroup"/><path d="M7,21.5 C7,21.7761424 6.77614237,22 6.5,22 C6.22385763,22 6,21.7761424 6,21.5 L6,19 L3.5,19 C3.22385763,19 3,18.7761424 3,18.5 C3,18.2238576 3.22385763,18 3.5,18 L6,18 L6,15.5 C6,15.2238576 6.22385763,15 6.5,15 C6.77614237,15 7,15.2238576 7,15.5 L7,18 L9.5,18 C9.77614237,18 10,18.2238576 10,18.5 C10,18.7761424 9.77614237,19 9.5,19 L7,19 L7,21.5 Z" sketch:type="MSShapeGroup" transform="translate(6.500000, 18.500000) rotate(-315.000000) translate(-6.500000, -18.500000) "/><circle sketch:type="MSShapeGroup" cx="18.5" cy="16.5" r="0.5"/><circle sketch:type="MSShapeGroup" cx="18.5" cy="20.5" r="0.5"/></g></g></g><text x="0" y="45" fill="#000000" font-size="5px" font-weight="bold" font-family="'Helvetica Neue', Helvetica, Arial-Unicode, Arial, Sans-serif">Created by Pham Thi Dieu Linh</text><text x="0" y="50" fill="#000000" font-size="5px" font-weight="bold" font-family="'Helvetica Neue', Helvetica, Arial-Unicode, Arial, Sans-serif">from the Noun Project</text></svg>