<svg xmlns="http://www.w3.org/2000/svg" xmlns:xlink="http://www.w3.org/1999/xlink" version="1.2" baseProfile="tiny" x="0px" y="0px" viewBox="0 0 100 125" xml:space="preserve"><path d="M75,47.5c0,1.381,1.119,2.5,2.5,2.5s2.5-1.119,2.5-2.5C80,32.336,67.663,20,52.5,20c-1.381,0-2.5,1.119-2.5,2.5   s1.119,2.5,2.5,2.5C64.906,25,75,35.093,75,47.5z"/><path d="M88.378,62.659l-20-7.5c-0.917-0.342-1.951-0.12-2.646,0.573l-6.034,6.034c-8.384-5.871-15.592-13.079-21.464-21.464   l6.033-6.034c0.693-0.693,0.917-1.728,0.573-2.646l-7.5-20C36.975,10.646,36.042,10,35,10h-1.398   c-6.214,0-12.057,2.42-16.451,6.814v0C12.539,21.425,10,27.556,10,34.076c0,4.317,1.15,8.571,3.326,12.3   c9.713,16.65,23.647,30.585,40.297,40.298C57.354,88.85,61.607,90,65.924,90c6.521,0,12.651-2.54,17.262-7.15   C87.58,78.456,90,72.614,90,66.398V65C90,63.958,89.354,63.025,88.378,62.659z M79.65,79.314C75.983,82.981,71.109,85,65.924,85   c-3.433,0-6.815-0.915-9.781-2.645c-15.906-9.278-29.219-22.591-38.499-38.498C15.914,40.891,15,37.509,15,34.076   c0-5.185,2.02-10.06,5.686-13.727v0c3.372-3.372,7.829-5.263,12.583-5.347l6.325,16.868l-6.361,6.362   c-0.843,0.842-0.974,2.163-0.313,3.154c6.82,10.23,15.465,18.875,25.693,25.693c0.992,0.662,2.312,0.53,3.154-0.313l6.362-6.361   l16.867,6.325C84.913,71.486,83.021,75.943,79.65,79.314z"/><path d="M52.5,10c-1.381,0-2.5,1.119-2.5,2.5s1.119,2.5,2.5,2.5C70.421,15,85,29.58,85,47.5c0,1.381,1.119,2.5,2.5,2.5   s2.5-1.119,2.5-2.5C90,26.822,73.178,10,52.5,10z"/><text x="0" y="115" fill="#000000" font-size="5px" font-weight="bold" font-family="'Helvetica Neue', Helvetica, Arial-Unicode, Arial, Sans-serif">Created by Arthur Shlain</text><text x="0" y="120" fill="#000000" font-size="5px" font-weight="bold" font-family="'Helvetica Neue', Helvetica, Arial-Unicode, Arial, Sans-serif">from the Noun Project</text></svg>