<svg xmlns="http://www.w3.org/2000/svg" xmlns:xlink="http://www.w3.org/1999/xlink" version="1.1" x="0px" y="0px" viewBox="0 0 100 125" enable-background="new 0 0 100 100" xml:space="preserve"><path fill="#000000" d="M70.8,23.3L60.1,12.5C57.4,9.8,53.8,8.3,50,8.3H20.8c-6.9,0-12.5,5.6-12.5,12.5v58.3  c0,6.9,5.6,12.5,12.5,12.5h41.7c6.9,0,12.5-5.6,12.5-12.5V55.9l18.4-18.4L75,19.1L70.8,23.3z M54.2,18.4l10.8,10.8h-6.6  c-2.3,0-4.2-1.9-4.2-4.2V18.4z M66.7,79.2c0,2.3-1.9,4.2-4.2,4.2H20.8c-2.3,0-4.2-1.9-4.2-4.2V20.8c0-2.3,1.9-4.2,4.2-4.2h25V25  c0,6.4,4.8,11.6,10.9,12.3L33.3,60.8v18.4h18.4l14.9-14.9V79.2z M48.3,70.8h-6.6v-6.6L75,30.9l6.6,6.6L48.3,70.8z"/><polygon fill="#000000" points="37.5,37.9 29.2,46.2 25,42 19.1,47.9 29.2,58 43.4,43.8 "/><polygon fill="#000000" points="43.4,25 37.5,19.1 29.2,27.4 25,23.3 19.1,29.2 29.2,39.2 "/><text x="0" y="115" fill="#000000" font-size="5px" font-weight="bold" font-family="'Helvetica Neue', Helvetica, Arial-Unicode, Arial, Sans-serif">Created by Arthur Shlain</text><text x="0" y="120" fill="#000000" font-size="5px" font-weight="bold" font-family="'Helvetica Neue', Helvetica, Arial-Unicode, Arial, Sans-serif">from the Noun Project</text></svg>