<svg xmlns="http://www.w3.org/2000/svg" xmlns:xlink="http://www.w3.org/1999/xlink" xmlns:sketch="http://www.bohemiancoding.com/sketch/ns" viewBox="0 0 30 37.5" version="1.1" x="0px" y="0px"><title>business_023-pie_chart-report-analytic-statistic-data</title><desc>Created with Sketch.</desc><g stroke="none" stroke-width="1" fill="none" fill-rule="evenodd" sketch:type="MSPage"><g sketch:type="MSArtboardGroup" transform="translate(-225.000000, -225.000000)" fill="#000000"><g sketch:type="MSLayerGroup" transform="translate(225.000000, 230.000000)"><path d="M22.5,11 L12.7057495,11 L19.631728,4.0753788 C19.8269901,3.88011665 19.8269901,3.56353416 19.631728,3.36827202 C17.4893027,1.22584673 14.5910755,1.13686838e-13 11.5,1.13686838e-13 C5.14872538,1.13686838e-13 -1.70530257e-13,5.14872538 -1.70530257e-13,11.5 C-1.70530257e-13,17.8512746 5.14872538,23 11.5,23 C17.8512746,23 23,17.8512746 23,11.5 C23,11.2238576 22.7761424,11 22.5,11 Z M21.9882138,12.0019385 C21.7262614,17.5678459 17.1307232,22 11.5,22 C5.70101013,22 1,17.2989899 1,11.5 C1,5.70101013 5.70101013,1 11.5,1 C14.1521534,1 16.646868,1.98723691 18.5616397,3.72913958 L11.1464466,11.1464466 C10.8314642,11.461429 11.0545476,12 11.5,12 L21.9882138,12.0019385 Z" sketch:type="MSShapeGroup"/><path d="M18.1464466,8.14644661 C17.8314642,8.46142904 18.0545476,9 18.5,9 L29.5,9 C29.7761424,9 30,8.77614237 30,8.5 C30,5.40892449 28.7741533,2.5106973 26.631728,0.368272016 C26.4364658,0.173009871 26.1198833,0.173009871 25.9246212,0.368272016 L18.1464466,8.14644661 Z M26.2879568,1.45719878 C27.9099839,3.24882124 28.8732439,5.54497295 28.9883438,8.00158981 L19.7084351,7.9999999 L26.2879568,1.45719878 Z" sketch:type="MSShapeGroup"/><path d="M21,6 L22,5 L22,9 L21,9 L21,6 Z" sketch:type="MSShapeGroup"/><path d="M23,4 L24,3 L24,9 L23,9 L23,4 Z" sketch:type="MSShapeGroup"/><path d="M25,2 L26,1 L26,9 L25,9 L25,2 Z" sketch:type="MSShapeGroup"/><path d="M27,2 L28,3 L28,9 L27,9 L27,2 Z" sketch:type="MSShapeGroup"/></g></g></g><text x="0" y="45" fill="#000000" font-size="5px" font-weight="bold" font-family="'Helvetica Neue', Helvetica, Arial-Unicode, Arial, Sans-serif">Created by Pham Thi Dieu Linh</text><text x="0" y="50" fill="#000000" font-size="5px" font-weight="bold" font-family="'Helvetica Neue', Helvetica, Arial-Unicode, Arial, Sans-serif">from the Noun Project</text></svg>