<svg xmlns="http://www.w3.org/2000/svg" xmlns:xlink="http://www.w3.org/1999/xlink" version="1.2" baseProfile="tiny" x="0px" y="0px" viewBox="0 0 100 125" xml:space="preserve"><path d="M85,10H15c-4.136,0-7.5,3.364-7.5,7.5v70c0,1.381,1.119,2.5,2.5,2.5h80c1.381,0,2.5-1.119,2.5-2.5v-70   C92.5,13.364,89.136,10,85,10z M87.5,85h-75V35h75V85z M87.5,30h-75V17.5c0-1.379,1.121-2.5,2.5-2.5h70c1.379,0,2.5,1.121,2.5,2.5   V30z"/><path d="M80,17.5c-2.757,0-5,2.243-5,5s2.243,5,5,5s5-2.243,5-5S82.757,17.5,80,17.5z"/><path d="M67.5,17.5c-2.757,0-5,2.243-5,5s2.243,5,5,5s5-2.243,5-5S70.257,17.5,67.5,17.5z"/><path d="M55,17.5c-2.757,0-5,2.243-5,5s2.243,5,5,5s5-2.243,5-5S57.757,17.5,55,17.5z"/><path d="M20,80h20c1.381,0,2.5-1.119,2.5-2.5v-35c0-1.381-1.119-2.5-2.5-2.5H20c-1.381,0-2.5,1.119-2.5,2.5v35   C17.5,78.881,18.619,80,20,80z M22.5,45h15v30h-15V45z"/><path d="M50,60h30c1.381,0,2.5-1.119,2.5-2.5v-15c0-1.381-1.119-2.5-2.5-2.5H50c-1.381,0-2.5,1.119-2.5,2.5v15   C47.5,58.881,48.619,60,50,60z M52.5,45h25v10h-25V45z"/><path d="M50,70h30c1.381,0,2.5-1.119,2.5-2.5S81.381,65,80,65H50c-1.381,0-2.5,1.119-2.5,2.5S48.619,70,50,70z"/><path d="M50,80h30c1.381,0,2.5-1.119,2.5-2.5S81.381,75,80,75H50c-1.381,0-2.5,1.119-2.5,2.5S48.619,80,50,80z"/><text x="0" y="115" fill="#000000" font-size="5px" font-weight="bold" font-family="'Helvetica Neue', Helvetica, Arial-Unicode, Arial, Sans-serif">Created by Arthur Shlain</text><text x="0" y="120" fill="#000000" font-size="5px" font-weight="bold" font-family="'Helvetica Neue', Helvetica, Arial-Unicode, Arial, Sans-serif">from the Noun Project</text></svg>