<svg xmlns:x="http://ns.adobe.com/Extensibility/1.0/" xmlns:i="http://ns.adobe.com/AdobeIllustrator/10.0/" xmlns:graph="http://ns.adobe.com/Graphs/1.0/" xmlns="http://www.w3.org/2000/svg" xmlns:xlink="http://www.w3.org/1999/xlink" version="1.1" x="0px" y="0px" viewBox="0 0 64 80" enable-background="new 0 0 64 64" xml:space="preserve"><metadata><sfw xmlns="http://ns.adobe.com/SaveForWeb/1.0/"><slices/><sliceSourceBounds y="-8160" x="-8165" width="16389" height="16384" bottomLeftOrigin="true"/></sfw></metadata><g><g><rect x="21" y="43" width="6" height="6"/><rect x="21" y="29" width="6" height="6"/><path d="M50,7H14c-0.552,0-1,0.448-1,1v48c0,0.553,0.448,1,1,1h36c0.553,0,1-0.447,1-1V8C51,7.448,50.553,7,50,7z M21.293,19.293    c0.391-0.391,1.023-0.391,1.414,0l1.138,1.137l3.323-4.985c0.306-0.459,0.926-0.585,1.387-0.277    c0.459,0.306,0.583,0.927,0.277,1.387l-4,6c-0.166,0.25-0.436,0.411-0.733,0.44C24.065,22.999,24.033,23,24,23    c-0.264,0-0.519-0.104-0.707-0.293l-2-2C20.902,20.316,20.902,19.684,21.293,19.293z M29,50c0,0.553-0.448,1-1,1h-8    c-0.552,0-1-0.447-1-1v-8c0-0.553,0.448-1,1-1h8c0.552,0,1,0.447,1,1V50z M29,36c0,0.553-0.448,1-1,1h-8c-0.552,0-1-0.447-1-1v-8    c0-0.552,0.448-1,1-1h8c0.552,0,1,0.448,1,1V36z M44,47H34c-0.553,0-1-0.447-1-1s0.447-1,1-1h10c0.553,0,1,0.447,1,1    S44.553,47,44,47z M44,33H34c-0.553,0-1-0.448-1-1s0.447-1,1-1h10c0.553,0,1,0.448,1,1S44.553,33,44,33z M44,19H34    c-0.553,0-1-0.448-1-1s0.447-1,1-1h10c0.553,0,1,0.448,1,1S44.553,19,44,19z"/></g></g><text x="0" y="79" fill="#000000" font-size="5px" font-weight="bold" font-family="'Helvetica Neue', Helvetica, Arial-Unicode, Arial, Sans-serif">Created by Ralf Schmitzer</text><text x="0" y="84" fill="#000000" font-size="5px" font-weight="bold" font-family="'Helvetica Neue', Helvetica, Arial-Unicode, Arial, Sans-serif">from the Noun Project</text></svg>