<svg xmlns="http://www.w3.org/2000/svg" xmlns:xlink="http://www.w3.org/1999/xlink" version="1.1" x="0px" y="0px" viewBox="0 0 100 125" enable-background="new 0 0 100 100" xml:space="preserve"><path d="M18.5,24.6v0.7c0,4.9,4,8.9,8.9,8.9h0.7c4.9,0,8.9-4,8.9-8.9v-0.7c0-4.9-4-8.9-8.9-8.9h-0.7C22.5,15.7,18.5,19.7,18.5,24.6z   M22.7,24.6c0-2.6,2.1-4.7,4.7-4.7h0.7c2.6,0,4.7,2.1,4.7,4.7v0.7c0,2.6-2.1,4.7-4.7,4.7h-0.7c-2.6,0-4.7-2.1-4.7-4.7V24.6z   M37,49.6c0-4.9-4-8.9-8.9-8.9h-0.7c-4.9,0-8.9,4-8.9,8.9v0.7c0,4.9,4,8.9,8.9,8.9h0.7c4.9,0,8.9-4,8.9-8.9V49.6z M32.8,50.4  c0,2.6-2.1,4.7-4.7,4.7h-0.7c-2.6,0-4.7-2.1-4.7-4.7v-0.7c0-2.6,2.1-4.7,4.7-4.7h0.7c2.6,0,4.7,2.1,4.7,4.7V50.4z M37,75.4v-0.7  c0-4.9-4-8.9-8.9-8.9h-0.7c-4.9,0-8.9,4-8.9,8.9v0.7c0,4.9,4,8.9,8.9,8.9h0.7C33,84.3,37,80.3,37,75.4z M32.8,75.4  c0,2.6-2.1,4.7-4.7,4.7h-0.7c-2.6,0-4.7-2.1-4.7-4.7v-0.7c0-2.6,2.1-4.7,4.7-4.7h0.7c2.6,0,4.7,2.1,4.7,4.7V75.4z M81.5,24.5  c0,1.2-1,2.1-2.1,2.1h-34c-1.2,0-2.1-1-2.1-2.1c0-1.2,1-2.1,2.1-2.1h34C80.5,22.4,81.5,23.4,81.5,24.5z M43.4,51.5  c-0.4-0.4-0.6-0.9-0.6-1.5s0.2-1.1,0.6-1.5s0.9-0.6,1.5-0.6c0.6,0,1.1,0.2,1.5,0.6c0.4,0.4,0.6,0.9,0.6,1.5s-0.2,1.1-0.6,1.5  c-0.4,0.4-0.9,0.6-1.5,0.6C44.4,52.1,43.8,51.9,43.4,51.5z M58.5,52.1c-1.2,0-2.1-1-2.1-2.1c0-1.2,1-2.1,2.1-2.1  c1.2,0,2.1,0.9,2.1,2.1C60.6,51.2,59.7,52.1,58.5,52.1z M65.3,52.1c-1.2,0-2.1-1-2.1-2.1c0-1.2,0.9-2.1,2.1-2.1  c1.2,0,2.1,0.9,2.1,2.1C67.4,51.2,66.5,52.1,65.3,52.1z M72.1,52.1c-1.2,0-2.1-1-2.1-2.1c0-1.2,0.9-2.1,2.1-2.1  c1.2,0,2.1,0.9,2.1,2.1C74.2,51.2,73.3,52.1,72.1,52.1z M51.7,52.1c-1.2,0-2.1-1-2.1-2.1c0-1.2,1-2.1,2.1-2.1c1.2,0,2.1,0.9,2.1,2.1  C53.8,51.2,52.9,52.1,51.7,52.1z M78.9,52.1c-0.6,0-1.1-0.2-1.5-0.6c-0.4-0.4-0.6-0.9-0.6-1.5s0.2-1.1,0.6-1.5  c0.4-0.4,0.9-0.6,1.5-0.6s1.1,0.2,1.5,0.6c0.4,0.4,0.6,0.9,0.6,1.5c0,0.6-0.2,1.1-0.6,1.5C80,51.9,79.5,52.1,78.9,52.1z M78.9,77.1  h-34c-1.2,0-2.1-1-2.1-2.1s1-2.1,2.1-2.1h34c1.2,0,2.1,1,2.1,2.1S80.1,77.1,78.9,77.1z"/><text x="0" y="115" fill="#000000" font-size="5px" font-weight="bold" font-family="'Helvetica Neue', Helvetica, Arial-Unicode, Arial, Sans-serif">Created by Gregor Črešnar</text><text x="0" y="120" fill="#000000" font-size="5px" font-weight="bold" font-family="'Helvetica Neue', Helvetica, Arial-Unicode, Arial, Sans-serif">from the Noun Project</text></svg>