<svg xmlns="http://www.w3.org/2000/svg" xmlns:xlink="http://www.w3.org/1999/xlink" version="1.2" baseProfile="tiny" x="0px" y="0px" viewBox="0 0 100 125" xml:space="preserve"><path d="M52.824,29.317l-1.828,6.825l4.829,1.294l3.883-14.489l-14.488-3.883l-1.294,4.83l5.645,1.513  c-5.027,2.803-9.643,6.277-13.765,10.399C26.671,44.94,20.73,56.409,18.501,68.862C13.006,69.598,8.75,74.306,8.75,80  c0,6.203,5.047,11.25,11.25,11.25S31.25,86.203,31.25,80c0-4.982-3.258-9.211-7.753-10.686c2.11-11.288,7.547-21.676,15.844-29.972  C43.358,35.325,47.879,31.97,52.824,29.317z M23.75,80c0,2.068-1.683,3.75-3.75,3.75s-3.75-1.682-3.75-3.75s1.683-3.75,3.75-3.75  S23.75,77.932,23.75,80z"/><polygon points="14.696,30.606 20,25.303 25.304,30.606 30.607,25.303 25.304,20 30.607,14.697 25.304,9.394 20,14.697   14.696,9.394 9.393,14.697 14.696,20 9.393,25.303 "/><polygon points="55.304,69.394 50,74.697 44.696,69.394 39.393,74.697 44.696,80 39.393,85.303 44.696,90.606 50,85.303   55.304,90.606 60.607,85.303 55.304,80 60.607,74.697 "/><polygon points="85.304,39.394 80,44.697 74.696,39.394 69.393,44.697 74.696,50 69.393,55.303 74.696,60.606 80,55.303   85.304,60.606 90.607,55.303 85.304,50 90.607,44.697 "/><polygon points="77.349,20 72.045,14.697 66.741,20 77.349,30.606 93.259,14.697 87.955,9.394 "/><text x="0" y="115" fill="#000000" font-size="5px" font-weight="bold" font-family="'Helvetica Neue', Helvetica, Arial-Unicode, Arial, Sans-serif">Created by Arthur Shlain</text><text x="0" y="120" fill="#000000" font-size="5px" font-weight="bold" font-family="'Helvetica Neue', Helvetica, Arial-Unicode, Arial, Sans-serif">from the Noun Project</text></svg>