<svg xmlns="http://www.w3.org/2000/svg" xmlns:xlink="http://www.w3.org/1999/xlink" version="1.2" baseProfile="tiny" x="0px" y="0px" viewBox="0 0 100 125" xml:space="preserve"><path d="M37.5,40h25c1.381,0,2.5-1.119,2.5-2.5S63.881,35,62.5,35h-25c-1.381,0-2.5,1.119-2.5,2.5S36.119,40,37.5,40z"/><path d="M37.5,30h5c1.381,0,2.5-1.119,2.5-2.5S43.881,25,42.5,25h-5c-1.381,0-2.5,1.119-2.5,2.5S36.119,30,37.5,30z"/><path d="M65,47.5c0-1.381-1.119-2.5-2.5-2.5h-25c-1.381,0-2.5,1.119-2.5,2.5s1.119,2.5,2.5,2.5h25C63.881,50,65,48.881,65,47.5z"/><path d="M77.5,26.299V17.5c0-1.381-1.119-2.5-2.5-2.5H63.377L51.562,5.548c-0.913-0.73-2.21-0.73-3.123,0L36.623,15H25   c-1.381,0-2.5,1.119-2.5,2.5v8.799l-11.562,9.25C10.345,36.022,10,36.741,10,37.5v50c0,1.381,1.119,2.5,2.5,2.5h75   c1.381,0,2.5-1.119,2.5-2.5v-50c0-0.759-0.345-1.478-0.938-1.952L77.5,26.299 M77.5,32.702l5.998,4.798L77.5,42.298V32.702z    M50,10.702L55.373,15H44.627L50,10.702z M27.5,20h45v26.299l-22.5,18l-22.5-18V20z M22.5,32.702v9.597L16.502,37.5L22.5,32.702z    M85,85H15V42.702l33.438,26.75c0.114,0.091,0.234,0.171,0.359,0.24c0.748,0.411,1.657,0.411,2.405,0   c0.125-0.068,0.245-0.148,0.359-0.24L85,42.702V85z"/><text x="0" y="115" fill="#000000" font-size="5px" font-weight="bold" font-family="'Helvetica Neue', Helvetica, Arial-Unicode, Arial, Sans-serif">Created by Arthur Shlain</text><text x="0" y="120" fill="#000000" font-size="5px" font-weight="bold" font-family="'Helvetica Neue', Helvetica, Arial-Unicode, Arial, Sans-serif">from the Noun Project</text></svg>